<?xml version="1.0" encoding="UTF-8"?>
<svg xmlns="http://www.w3.org/2000/svg" xmlns:xlink="http://www.w3.org/1999/xlink" width="500px" height="500px" viewBox="0 0 500 500" version="1.1">
<g id="surface1">
<path style=" stroke:none;fill-rule:nonzero;fill:rgb(0%,0%,0%);fill-opacity:1;" d="M 391.203125 172.511719 L 316.488281 172.511719 L 316.488281 216.84375 L 391.203125 216.84375 C 413.417969 216.84375 430.65625 228.191406 430.65625 237.960938 L 430.65625 434.542969 C 430.65625 444.3125 413.417969 455.660156 391.203125 455.660156 L 108.792969 455.660156 C 86.574219 455.660156 69.335938 444.3125 69.335938 434.542969 L 69.335938 237.96875 C 69.335938 228.199219 86.574219 216.851562 108.792969 216.851562 L 183.492188 216.851562 L 183.492188 172.519531 L 108.792969 172.519531 C 61.804688 172.519531 25.003906 201.269531 25.003906 237.96875 L 25.003906 434.550781 C 25.003906 471.257812 61.804688 500 108.792969 500 L 391.207031 500 C 438.1875 500 474.996094 471.25 474.996094 434.550781 L 474.996094 237.96875 C 474.988281 201.261719 438.1875 172.511719 391.203125 172.511719 Z M 391.203125 172.511719 "/>
<path style=" stroke:none;fill-rule:nonzero;fill:rgb(0%,0%,0%);fill-opacity:1;" d="M 184.398438 110.496094 C 190.074219 110.496094 195.742188 108.332031 200.070312 104.003906 L 227.824219 76.25 L 227.824219 301.769531 C 227.824219 314.011719 237.746094 323.933594 249.988281 323.933594 C 262.230469 323.933594 272.15625 314.011719 272.15625 301.769531 L 272.15625 74.75 L 301.40625 104.003906 C 305.738281 108.332031 311.410156 110.496094 317.078125 110.496094 C 322.746094 110.496094 328.417969 108.332031 332.75 104.003906 C 341.410156 95.351562 341.410156 81.3125 332.75 72.660156 L 266.570312 6.480469 C 262.238281 2.148438 256.570312 0 250.90625 0 C 250.847656 0 250.792969 0 250.734375 0 C 250.675781 0 250.625 0 250.566406 0 C 244.898438 0 239.230469 2.148438 234.902344 6.480469 L 168.722656 72.660156 C 160.0625 81.3125 160.0625 95.351562 168.722656 104.003906 C 173.058594 108.332031 178.726562 110.496094 184.398438 110.496094 Z M 184.398438 110.496094 "/>
</g>
</svg>
