<?xml version="1.0" encoding="UTF-8"?>
<svg xmlns="http://www.w3.org/2000/svg" xmlns:xlink="http://www.w3.org/1999/xlink" width="500px" height="500px" viewBox="0 0 500 500" version="1.1">
<g id="surface1">
<path style=" stroke:none;fill-rule:nonzero;fill:rgb(0%,0%,0%);fill-opacity:1;" d="M 143.277344 68.855469 L 480.921875 0 L 480.921875 94.15625 L 143.277344 163.011719 Z M 143.277344 68.855469 "/>
<path style=" stroke:none;fill-rule:nonzero;fill:rgb(0%,0%,0%);fill-opacity:1;" d="M 143.277344 68.78125 L 197.636719 68.78125 L 197.636719 420.753906 L 143.277344 420.753906 Z M 143.277344 68.78125 "/>
<path style=" stroke:none;fill-rule:nonzero;fill:rgb(0%,0%,0%);fill-opacity:1;" d="M 195.867188 406.835938 C 205.582031 443.085938 174.273438 482.96875 125.945312 495.917969 C 77.613281 508.867188 30.558594 489.980469 20.847656 453.734375 C 11.132812 417.484375 42.441406 377.601562 90.769531 364.652344 C 139.101562 351.703125 186.15625 370.589844 195.867188 406.835938 Z M 195.867188 406.835938 "/>
<path style=" stroke:none;fill-rule:nonzero;fill:rgb(0%,0%,0%);fill-opacity:1;" d="M 426.5625 11.285156 L 480.921875 11.285156 L 480.921875 363.257812 L 426.5625 363.257812 Z M 426.5625 11.285156 "/>
<path style=" stroke:none;fill-rule:nonzero;fill:rgb(0%,0%,0%);fill-opacity:1;" d="M 479.152344 349.339844 C 488.867188 385.585938 457.558594 425.46875 409.230469 438.421875 C 360.898438 451.371094 313.84375 432.484375 304.132812 396.234375 C 294.417969 359.988281 325.726562 320.105469 374.054688 307.15625 C 422.386719 294.203125 469.441406 313.089844 479.152344 349.339844 Z M 479.152344 349.339844 "/>
</g>
</svg>
