<?xml version="1.0" encoding="UTF-8"?>
<svg xmlns="http://www.w3.org/2000/svg" xmlns:xlink="http://www.w3.org/1999/xlink" width="500px" height="500px" viewBox="0 0 500 500" version="1.1">
<g id="surface1">
<path style=" stroke:none;fill-rule:nonzero;fill:rgb(0%,0%,0%);fill-opacity:1;" d="M 250 187.5 L 156.25 281.25 L 218.75 281.25 L 218.75 437.5 L 281.25 437.5 L 281.25 281.25 L 343.75 281.25 Z M 406.25 156.25 C 401.976562 156.25 397.886719 156.9375 393.738281 157.5 C 369.933594 101.65625 314.515625 62.5 250 62.5 C 185.46875 62.5 130.097656 101.65625 106.246094 157.5 C 102.125 156.9375 98.039062 156.25 93.75 156.25 C 41.960938 156.25 0 198.242188 0 250 C 0 301.789062 41.960938 343.75 93.75 343.75 C 103.773438 343.75 113.21875 341.675781 122.253906 338.652344 C 138.902344 357.117188 161.773438 369.507812 187.5 373.289062 L 187.5 341.429688 C 163.164062 336.363281 142.777344 320.527344 132.507812 298.585938 C 121.839844 307.128906 108.503906 312.5 93.75 312.5 C 59.25 312.5 31.25 284.484375 31.25 250 C 31.25 215.5 59.25 187.5 93.75 187.5 C 106.09375 187.5 117.492188 191.191406 127.152344 197.34375 C 137.375 138.566406 188.277344 93.75 250 93.75 C 311.765625 93.75 362.183594 138.777344 372.3125 197.632812 C 382.078125 191.285156 393.738281 187.5 406.25 187.5 C 440.734375 187.5 468.75 215.5 468.75 250 C 468.75 284.484375 440.734375 312.5 406.25 312.5 C 401.246094 312.5 396.484375 311.765625 391.785156 310.667969 C 377.65625 330.628906 354.460938 343.75 328.125 343.75 C 322.722656 343.75 317.566406 342.957031 312.5 341.796875 L 312.5 373.503906 C 317.597656 374.328125 322.785156 375 328.125 375 C 358 375 385.007812 362.945312 404.785156 343.535156 C 405.273438 343.535156 405.699219 343.75 406.25 343.75 C 458.039062 343.75 500 301.789062 500 250 C 500 198.242188 458.039062 156.25 406.25 156.25 Z M 406.25 156.25 "/>
</g>
</svg>
